<?xml version="1.0" encoding="utf-8"?>
<!-- Generator: Adobe Illustrator 21.1.0, SVG Export Plug-In . SVG Version: 6.00 Build 0)  -->
<svg version="1.1" id="Layer_1" xmlns="http://www.w3.org/2000/svg" xmlns:xlink="http://www.w3.org/1999/xlink" x="0px" y="0px"
	 width="1400px" height="980px" viewBox="0 0 1400 980" style="enable-background:new 0 0 1400 980;" xml:space="preserve">
<style type="text/css">
	.st0{fill:#181544;}
	.st1{fill:#B8A6E2;}
	.st2{fill:#907CD1;}
	.st3{opacity:0.34;fill:#7666BC;}
	.st4{opacity:0.58;fill:#C3B8F2;}
	.st5{fill:#7E72CC;}
	.st6{opacity:0.37;fill:#7666BC;}
	.st7{fill:#3FBBFF;}
	.st8{fill:#1FACEA;}
	.st9{fill:#00DD3F;}
	.st10{fill:#3AEF69;}
	.st11{fill:#71FF92;}
	.st12{fill:#FF8600;}
	.st13{fill:#F47B19;}
	.st14{fill:#E87707;}
	.st15{fill:#CC5F06;}
	.st16{fill:#F4B276;}
	.st17{fill:#FFB000;}
	.st18{fill:#C4703B;}
	.st19{fill:#B25B2B;}
	.st20{fill:#E4541D;}
	.st21{fill:#FF9473;}
	.st22{fill:#E59A03;}
	.st23{fill:none;}
	.st24{fill:#FF7300;}
	.st25{fill:#FFDD00;}
	.st26{fill:#FFFFFF;}
	.st27{fill:#FFFEAC;}
	.st28{fill:#E57505;}
	.st29{fill:#E85718;}
	.st30{opacity:0.53;fill:#E85718;}
</style>
<rect class="st0" width="1400" height="980"/>
<g>
	<path class="st1" d="M387.9,756.6c0,12.4-1.5,24.4-4.3,35.9c-2,8.1-4.6,16-7.8,23.6c-3.6,8.5-8,16.7-13.1,24.4
		c-6.3,9.5-13.6,18.3-21.9,26.2c-27.4,26.3-64.6,42.4-105.6,42.4c-18.5,0-36.2-3.3-52.6-9.3c-11.6-4.3-22.6-9.9-32.7-16.8
		c-7.9-5.3-15.3-11.4-22-18.1c-8.5-8.4-15.9-17.7-22.3-27.9c-7.2-11.5-12.8-24.1-16.8-37.4c-0.7-2.5-1.4-5.1-2-7.7
		c-2.7-11.3-4.1-23.1-4.1-35.3c0-8.3,0.7-16.4,1.9-24.3c5-31.1,19.3-59,40.1-80.8c27.8-29.2,67-47.4,110.5-47.4
		c24.8,0,48.1,5.9,68.8,16.4c25.3,12.8,46.5,32.5,61.3,56.5c11.4,18.6,19,40,21.5,62.8c0.6,5.2,0.9,10.5,0.9,15.9
		C387.9,756,387.9,756.3,387.9,756.6z"/>
	<path class="st2" d="M264.5,606.9c36.7,27.9,60.4,71.9,60.4,121.5c0,84.2-68.3,152.5-152.5,152.5c-10,0-19.7-1-29.1-2.8
		c25.6,19.4,57.5,31,92.1,31c84.2,0,152.5-68.3,152.5-152.5C387.9,682.3,334.8,620.5,264.5,606.9z"/>
	<path class="st3" d="M387,739.8c-95.1,40.9-196.9,58.5-300,52.1c-2.7-11.3-4.1-23.1-4.1-35.3c0-8.3,0.7-16.4,1.9-24.3
		c5-31.1,19.3-59,40.1-80.8c61.2-0.5,121.5-10.9,179.3-31c25.3,12.8,46.5,32.5,61.3,56.5C377,695.6,384.5,717,387,739.8z"/>
	<path class="st4" d="M387.9,756.6c0,12.4-1.5,24.4-4.3,35.9c-0.3,1.2-0.6,2.4-0.9,3.6c-4.3,16-11.1,30.9-19.9,44.4
		c-68.6,25.4-140.1,39.7-212.7,42.6c-14.2-9.6-26.7-21.6-37-35.3c-2.6-3.5-5-7-7.3-10.7c-5.8-9.4-10.7-19.5-14.4-30.1
		c-0.8-2.4-1.6-4.8-2.3-7.3c-0.7-2.5-1.4-5.1-2-7.7c-2.7-11.3-4.1-23.1-4.1-35.3c0-8.3,0.7-16.4,1.9-24.3
		c96.8,4.6,192.2-14.2,280.7-55.3c11.4,18.6,19,40,21.5,62.8c0.5,4.7,0.8,9.4,0.9,14.2c0,0.6,0,1.1,0,1.7
		C387.9,756,387.9,756.3,387.9,756.6z"/>
	<path class="st5" d="M387.9,756.6c0,12.4-1.5,24.4-4.3,35.9c-0.3,1.2-0.6,2.4-0.9,3.6c-86.2,33.8-177,51.2-269.7,51.7
		c-2.6-3.5-5-7-7.3-10.7c-5.8-9.4-10.7-19.5-14.4-30.1c102.3,6,203-12,296.5-52.9c0,0.6,0,1.1,0,1.7
		C387.9,756,387.9,756.3,387.9,756.6z"/>
	<path class="st6" d="M375.9,816.1c-3.6,8.5-8,16.7-13.1,24.4c-6.3,9.5-13.6,18.3-21.9,26.2c-51.4,17.1-104.3,28.1-158.2,33.1
		c-11.6-4.3-22.6-9.9-32.7-16.8c-7.9-5.3-15.3-11.4-22-18.1C213.4,866,297.2,849.5,375.9,816.1z"/>
</g>
<g>
	<path class="st7" d="M993,513c0,18.9-1.9,37.4-5.5,55.2C961.9,695.3,849.6,791,715,791c-35.4,0-69.2-6.6-100.3-18.7
		C510.7,732.1,437,631.2,437,513c0-146.6,113.5-266.7,257.4-277.2c6.8-0.5,13.7-0.8,20.6-0.8c58.3,0,112.3,17.9,157,48.6
		C945.1,333.6,993,417.7,993,513z"/>
	<path class="st8" d="M872,283.6c-17.2-11.8-35.8-21.7-55.5-29.4c45.3,49.4,72.9,115.3,72.9,187.7c0,18.9-1.9,37.4-5.5,55.2
		c-25.6,127.1-137.9,222.8-272.5,222.8c-35.4,0-69.2-6.6-100.3-18.7c-0.4-0.2-0.8-0.3-1.2-0.5c28.7,31.3,64.5,56.1,104.8,71.7
		C645.8,784.4,679.6,791,715,791c134.6,0,246.9-95.7,272.5-222.8c3.6-17.8,5.5-36.3,5.5-55.2C993,417.7,945.1,333.6,872,283.6z"/>
	<path class="st9" d="M704.5,364.9c-75.3,21.8-70.4,22.7-55,82.5c11.8,45.9-20.5,73.5-84.2,49.4c-76.1-28.9-94.7,88.5-37.8,85.5
		c121.4-6.5,23.7,50.2,28.1,72.3c9.1,46.8,101.4,38.5,81.7,86c-3.5,8.6-10.7,18.9-22.6,31.7C510.7,732.1,437,631.2,437,513
		c0-139.8,103.2-255.5,237.6-275.1c6.5-0.9,13.1-1.7,19.8-2.2C721.6,272.5,770.1,345.8,704.5,364.9z"/>
	<path class="st9" d="M993,513c0,9.1-0.4,18-1.3,26.9c-0.9,9.6-2.3,19-4.2,28.3c-17-5.7-34.5-10.7-51.6-12.3
		c-89-8.1-3.2-114.9-103.6-134.3c-82.5-16,5.7-106.4,39.7-138c6.1,4.2,11.9,8.5,17.6,13.1C952.7,347.7,993,425.6,993,513z"/>
	<path class="st9" d="M717.2,688.4c21.1,27.4,56,40.1,89.9,33.4c30-5.9,65.1-20.3,80.4-54.5c29.1-65.5-64.3-103.2-68-137.2
		c-3.6-34-71.8-17-64.3,54.6C762.2,651.9,682.1,642.8,717.2,688.4z"/>
	<path class="st10" d="M784.7,700.3c-14.6,0-28.7-4.5-40.3-12.6c-4.8-3.4-5.2-10.3-0.8-14.2c8.9-7.7,18.6-17.4,26.8-30.2
		c14.4-22.5,20.1-48.9,17-78.3c0-0.1,0-0.2,0-0.3c-0.9-8.7,10-13.3,15.7-6.6c7.7,9,16.4,17.5,25,25.8c14.7,14.3,29.8,29.1,37.6,43.3
		c5.9,10.8,6.3,18.4,1.7,28.9c-9.4,21.2-32.6,35.6-68.9,42.8C794,699.8,789.3,700.3,784.7,700.3
		C784.7,700.3,784.7,700.3,784.7,700.3z"/>
	<path class="st11" d="M805.4,665.5c-6.2,0-12.2-1.9-17.1-5.4c-2.1-1.4-2.2-4.4-0.3-6c3.8-3.3,7.9-7.4,11.4-12.8
		c6.1-9.6,8.6-20.8,7.3-33.3c0,0,0-0.1,0-0.1c-0.4-3.7,4.3-5.6,6.7-2.8c3.3,3.8,7,7.4,10.7,11c6.2,6.1,12.7,12.4,16,18.5
		c2.5,4.6,2.7,7.8,0.7,12.3c-4,9-13.9,15.2-29.4,18.2C809.3,665.3,807.4,665.5,805.4,665.5C805.4,665.5,805.4,665.5,805.4,665.5z"/>
	<path class="st10" d="M689.1,337.4c-57.1,19.4-78.4,26.4-71.1,78.6c7.3,52.2-8.2,72.8-64.3,48.5c-49.1-21.1-98.3,43.7-81.3,95.9
		c17,52.2,90.6,30,94.6,42.8c4,12.9-59.9,68.4-14.6,97.5c9.5,6.1,20.3,11.5,31.3,16.5c18.4,8.3,25.6,30.7,15.3,48
		c-0.1,0.1-0.1,0.2-0.2,0.3c-8.4-3.9-16.6-8.2-24.5-12.8c-19.5-11.5-37.5-25.2-53.6-41c-9.3-9.1-18-18.9-26-29.3
		c-16.1-20.9-29.3-44.1-39-69.1c-12.1-31.1-18.7-65-18.7-100.4c0-1.6,0-3.1,0-4.7c2-124.6,86.1-229.3,200.6-262.4
		c12-3.5,24.4-6.2,37-8C699.1,274.8,724.3,325.4,689.1,337.4z"/>
	<path class="st10" d="M993,513c0,1.8,0,3.6-0.1,5.4c-0.1,7.2-0.5,14.4-1.2,21.5c-83.7-8.9-79.7-34.7-86.5-83.5
		c-7.3-51.8-29.1-49.4-73.6-64.7c-35.9-12.4,31-72.3,58.1-94.9c10.5,8.5,20.4,17.7,29.6,27.7C965,373.9,993,440.2,993,513z"/>
	<path class="st11" d="M993,513c0,1.8,0,3.6-0.1,5.4c-47.4-7.3-53.6-56.3-57.6-85c-4.9-35.1-43-45.6-48.3-70.3
		c-3.8-18,19.3-32.3,32.1-38.8C965,373.9,993,440.2,993,513z"/>
	<path class="st11" d="M649.5,317.7c-51,27.9-64.3,37.6-61.9,74s7.3,66.8-53.4,47.3c-45.1-14.4-65.4,46.8-97.2,69.3
		c2-124.6,86.1-229.3,200.6-262.4C658.6,266.8,682.5,299.6,649.5,317.7z"/>
	<path class="st11" d="M507.8,643.3c-5.1,15.9-10.3,29-13.2,39.3c-16.1-20.9-29.3-44.1-39-69.1C482.6,614.5,515.2,620.3,507.8,643.3
		z"/>
	<path class="st11" d="M574.2,752.8c-19.5-11.5-37.5-25.2-53.6-41C544.9,712.9,577.7,713.1,574.2,752.8z"/>
	<path class="st10" d="M763.9,445.7c0.6-14.1-7.8-27.1-20.7-32.7c-14.2-6.1-28-11.2-39.3,4.1c-7,9.5-9.1,21.8-6.1,33.2
		c1.9,7.3,3.9,15.1,3.9,15.3c-10.9,37.2-7.7,69.4,23.1,49.4C755.6,494.9,763.1,466.3,763.9,445.7z"/>
	<path class="st11" d="M715.8,501.5c-1.6,1-3.7-0.1-3.7-2c0-6.3,1.2-16.1,5.1-29.2c1.3-4.6,1.3-4.6-3.7-24
		c-1.8-6.8-0.5-14.1,3.5-19.5c2.6-3.5,4-3.5,5.1-3.5c4,0,10.7,2.9,14.8,4.7c6.8,3,11.3,9.9,11,17.2
		C746.8,469.3,736,488.3,715.8,501.5C715.9,501.5,715.8,501.5,715.8,501.5z"/>
</g>
<g>
	<g>
		<path class="st12" d="M1258.9,179.5c0,10.3-1.6,20.3-4.5,29.7c-0.4,1.4-0.9,2.8-1.4,4.1c-2.2,6.2-5,12-8.3,17.6
			c-11.6,19.4-29.6,34.6-51.1,42.7c-11,4.1-22.9,6.4-35.3,6.4c-15.9,0-31-3.7-44.3-10.3c-0.8-0.4-1.6-0.8-2.4-1.2
			c-32-16.8-53.7-50.3-53.7-89c0-9.2,1.2-18.1,3.6-26.6c0.9-3.3,2-6.6,3.2-9.7c2.5-6.4,5.6-12.4,9.2-18c17.9-27.7,49-46.1,84.5-46.1
			c16.6,0,32.3,4,46.1,11.2c14.2,7.3,26.4,17.9,35.6,30.8c1.2,1.6,2.3,3.3,3.4,5C1253.2,141.5,1258.9,159.8,1258.9,179.5z"/>
		<path class="st13" d="M1240.1,121c-9.2-12.9-21.4-23.5-35.6-30.8c-4.8-2.5-9.8-4.6-15-6.3c6.3,5.4,12,11.5,16.9,18.3
			c11.8,16.5,18.8,36.7,18.8,58.5c0,11.9-2.1,23.3-5.8,33.8c-2.2,6.2-5,12-8.3,17.6c-11.6,19.4-29.6,34.6-51.1,42.7
			c-11,4.1-22.9,6.4-35.3,6.4c-10.9,0-21.3-1.7-31.1-4.9c5.6,4.7,11.6,8.8,18.1,12.2c0.8,0.4,1.6,0.8,2.4,1.2
			c13.4,6.6,28.4,10.3,44.3,10.3c12.4,0,24.3-2.2,35.3-6.4c21.5-8.1,39.5-23.2,51.1-42.7c3.3-5.5,6.1-11.4,8.3-17.6
			c3.8-10.6,5.8-22,5.8-33.8C1258.9,157.7,1251.9,137.5,1240.1,121z"/>
		<path class="st14" d="M1258.9,179.5c0,11.9-2.1,23.3-5.8,33.8c-13.6,0.9-26.9,1.1-37.7,0.1c-39.9-3.7,6.6-24.4-22.9-28.8
			c-29.6-4.4-16.3-14,6.6-18.5s8.1-25.9-26.6-34.7c-24.9-6.3,32.9-9.3,67.7-10.4C1251.9,137.5,1258.9,157.7,1258.9,179.5z"/>
		<path class="st14" d="M1163,158.3c-44.3,18.8-101.9,33.8-51.5,37.7c50.4,3.9,53.2,21.1,19.9,27.7c-33.2,6.6-26,18.8-7.2,21.1
			c18.8,2.2,69.8,23.3-9.4,24.9c-0.3,0-0.5,0-0.8,0c-33.2-16.4-56.1-50.6-56.1-90.2c0-12.8,2.4-25.1,6.8-36.3
			C1096.9,142.7,1200.7,142.3,1163,158.3z"/>
		<path class="st14" d="M1073.9,125.1c1.6-2.5,3.3-4.9,5.1-7.2c18.4-23.6,47.1-38.9,79.4-38.9c12.8,0,25,2.4,36.3,6.8
			c3.4,1.3,6.6,2.8,9.8,4.4c-12.1,6.7-42.1,13.4-62.7,13.9c-39.9,1.1-27,7.4,2.2,20.7C1168.2,135.8,1098.5,128.1,1073.9,125.1z"/>
		<path class="st15" d="M1244.7,230.9c-11.6,19.4-29.6,34.6-51.1,42.7c-17.6-4.2-21.6-10.8,9.4-16.9c40.2-7.9-64.2-18.7-27.7-22.5
			C1209.6,230.5,1231.1,230,1244.7,230.9z"/>
		<path class="st15" d="M1080.5,191c2,16.7,74.5,15.3,50.2,21.9c-24.3,6.6-41.6,10.1-33.2,25.1c8.4,15,50.5,18.2,38.4,20.5
			c-6.9,1.3-14.7,7.3-24.2,9.9c-32-16.8-53.7-50.3-53.7-89c0-9.2,1.2-18.1,3.6-26.6c25.2-1.3,83.9-3.9,76.4,0.6
			C1128.4,159.3,1078.4,174.3,1080.5,191z"/>
		<path class="st15" d="M1258.9,179.5c0,10.3-1.6,20.3-4.5,29.7c-13.3,2.3-31.5-2.7-42-3.7c-15.6-1.4,12.7-20.8-8.1-25.1
			s-5.2-7.2,11-13c16.2-5.8-0.3-28.3-18.2-33.5c-14.9-4.3,30.8-7.1,46.4-7.8C1253.2,141.5,1258.9,159.8,1258.9,179.5z"/>
		<path class="st15" d="M1123.3,122.2c7.2,7.1-28.1-0.6-44.3-4.3c18.4-23.6,47.1-38.9,79.4-38.9c12.8,0,25,2.4,36.3,6.8
			c-16,11.5-52.5,11.1-74.4,14.2C1091.9,104.1,1114,113.1,1123.3,122.2z"/>
	</g>
	<path class="st12" d="M1257.6,195.3c-0.7,4.7-1.8,9.4-3.2,13.9c-0.4,1.4-0.9,2.8-1.4,4.1c-2.2,6.2-5,12-8.3,17.6
		c-0.7,1.2-1.4,2.4-2.2,3.5c-27.5,4.6-58.9,7.2-92.1,7.2c-26.3,0-51.4-1.6-74.3-4.6c-8-11.4-13.7-24.5-16.4-38.7
		c27.7,4.5,58.9,7,90.7,7C1188.7,205.3,1226.1,201.8,1257.6,195.3z"/>
	<path class="st16" d="M1240.9,122.1c0.9,1.3,1.7,2.6,2.6,3.9c6.7,10.6,11.5,22.6,13.8,35.4c5.1,1,10,2.2,14.8,3.4
		c11.9,3,21.4,6.1,28.9,9.1c4.1,1.6,4.1,7.5,0,9.1c-7.5,3-17,6.1-28.9,9.1c-4.6,1.2-9.5,2.3-14.4,3.3c-31.5,6.5-68.9,10-107.2,10
		c-31.8,0-63-2.4-90.7-7c-10.9-1.8-21.3-3.9-31-6.3c-11.9-3-21.4-6.1-28.9-9.1c-4.1-1.6-4.1-7.5,0-9.1c7.5-3,17-6.1,28.9-9.1
		c9.8-2.5,20.3-4.6,31.4-6.4c0.4-1.9,0.8-3.7,1.3-5.5c0.9-3.3,2-6.6,3.2-9.7c2.5-6.4,5.6-12.4,9.2-18c1.2-1.9,2.5-3.7,3.8-5.5
		c-73.6,9.2-125.7,32.1-125.7,58.9c0,26.5,51.3,49.3,124,58.6c23,3,48,4.6,74.3,4.6c33.3,0,64.6-2.6,92.1-7.2
		c63.1-10.6,106.2-31.7,106.2-56C1348.7,153.9,1304.9,132.6,1240.9,122.1z"/>
</g>
<g>
	<path class="st17" d="M1000.8,91.1L1000.8,91.1c-0.7-1.9-2.8-2.8-4.7-2.1l-62.2,22.7c-2.7,1-5.5-0.1-6.4-2.4v0
		c-0.8-2.2,0.4-4.8,2.8-6L976,79.7c1.8-1,2.7-3.1,2-4.9v0c-0.7-1.9-2.8-2.9-4.8-2.4l-60.5,15c-1.4,0.4-2.8-0.3-3.3-1.4v0
		c-0.4-1.2,0.3-2.6,1.7-3.1l72.4-27.4c1.9-0.7,2.8-2.7,2.1-4.6v0c-0.7-1.9-2.9-3-4.9-2.4c-20.9,6.4-157.5,48.2-162.9,51.2
		c-6.9,3.9-13.1,9-17.7,15.2c-15.3,20.6-6.9,43.3,18.2,48.9c1.7,0.4,3.4,0.7,5.1,0.9c12.7,1.5,37.7-7.9,37.7-7.9l137.5-60.4
		C1000.5,95.3,1001.5,93.1,1000.8,91.1z"/>
	<g>
		<path class="st18" d="M851.6,143.5c-2,4.3-4.9,7.8-8.5,10.4c-6.8,4.9-15.7,6.6-24,3.8c-0.9-0.3-1.9-0.7-2.8-1.1
			c-13.4-6.1-19.2-21.9-13.1-35.3c1.9-4.2,4.8-7.7,8.3-10.2c7.5-5.6,17.8-7.1,27-2.9c1.3,0.6,2.6,1.3,3.8,2.1
			C852.9,117.5,857.1,131.5,851.6,143.5z"/>
		<path class="st19" d="M851.6,143.5c-2,4.3-4.9,7.8-8.5,10.4c-26.4,1.6-15.6-8.5-5.6-15.8c11-8,2.6-8-8.6-15
			c-8.2-5.1,5.4-10.3,13.3-12.7C852.9,117.5,857.1,131.5,851.6,143.5z"/>
		<path class="st19" d="M819.1,157.7c-0.9-0.3-1.9-0.7-2.8-1.1c-13.4-6.1-19.2-21.9-13.1-35.3c1.9-4.2,4.8-7.7,8.3-10.2
			c5.4,0.3,10.7,1,8.1,2.3c-4.8,2.5-18,12.5-9.3,15.1c8.8,2.6,22,4.8,8.3,11.5c-13.7,6.7-1.2,12,2.8,13.2
			C823.8,154,820.7,156.1,819.1,157.7z"/>
	</g>
</g>
<g>
	<path class="st17" d="M409,447.4L409,447.4c-1.1-2.4-3.9-3.4-6.3-2.3l-78.9,35.9c-3.4,1.5-7.2,0.5-8.6-2.5l0,0
		c-1.3-2.8,0-6.3,3.1-8.2l57.3-35.4c2.3-1.4,3.2-4.3,2.1-6.6l0,0c-1.1-2.4-3.9-3.5-6.5-2.7l-77.5,25.6c-1.8,0.6-3.7-0.1-4.4-1.5l0,0
		c-0.7-1.5,0.2-3.4,2-4.3l91.8-43c2.4-1.1,3.4-3.9,2.3-6.2l0,0c-1.1-2.5-4.1-3.6-6.7-2.6c-26.6,10.4-200.9,78.6-207.7,83.1
		c-8.7,5.7-16.2,13.1-21.7,21.6c-18,28.5-4.7,57.2,28.6,62c2.2,0.3,4.5,0.5,6.7,0.6c16.8,0.7,48.4-14,48.4-14l173.5-92.6
		C409.1,452.9,410.2,449.9,409,447.4z"/>
	<g>
		<path class="st18" d="M219.5,530.6c-2.1,5.8-5.6,10.7-10,14.4c-8.3,7.1-19.8,10.1-30.9,7.4c-1.3-0.3-2.5-0.7-3.8-1.2
			c-18-6.7-27.3-26.7-20.6-44.7c2.1-5.7,5.5-10.5,9.8-14.2c9.3-8.1,22.6-11,35-6.4c1.8,0.7,3.6,1.5,5.2,2.4
			C218.6,496.5,225.4,514.4,219.5,530.6z"/>
		<path class="st19" d="M219.5,530.6c-2.1,5.8-5.6,10.7-10,14.4c-34.3,4.8-21.2-9.6-8.9-20.1c13.5-11.5,2.6-10.7-12.7-18.8
			c-11.2-5.9,6.1-14,16.2-17.9C218.6,496.5,225.4,514.4,219.5,530.6z"/>
		<path class="st19" d="M178.5,552.4c-1.3-0.3-2.5-0.7-3.8-1.2c-18-6.7-27.3-26.7-20.6-44.7c2.1-5.7,5.5-10.5,9.8-14.2
			c7.1-0.1,14.1,0.2,10.9,2.3c-6,3.8-22.3,18.1-10.6,20.6c11.7,2.5,29.2,4.1,11.9,14.3c-17.3,10.1-0.4,15.8,5,17
			C184.2,547.1,180.4,550.2,178.5,552.4z"/>
	</g>
</g>
<g>
	<path class="st17" d="M886.1,846.8L886.1,846.8c-1-2.1-3.5-3.1-5.6-2.1l-70.4,32c-3,1.4-6.4,0.4-7.6-2.2l0,0
		c-1.1-2.5,0-5.6,2.7-7.3l51.1-31.5c2.1-1.3,2.9-3.8,1.9-5.9v0c-1-2.1-3.5-3.2-5.8-2.4l-69.1,22.8c-1.6,0.5-3.3-0.1-3.9-1.4l0,0
		c-0.6-1.4,0.1-3,1.8-3.8l81.9-38.4c2.1-1,3-3.5,2.1-5.6l0,0c-1-2.2-3.7-3.3-5.9-2.4c-23.8,9.3-179.2,70.1-185.2,74.1
		c-7.7,5.1-14.5,11.7-19.3,19.3c-16,25.4-4.2,51,25.5,55.3c2,0.3,4,0.5,6,0.5c15,0.6,43.2-12.5,43.2-12.5L884,852.9
		C886.2,851.8,887.1,849,886.1,846.8z"/>
	<g>
		<path class="st18" d="M717,921c-1.9,5.2-5,9.5-8.9,12.8c-7.4,6.4-17.7,9-27.6,6.6c-1.1-0.3-2.2-0.6-3.3-1
			c-16.1-5.9-24.3-23.8-18.4-39.9c1.9-5.1,4.9-9.3,8.7-12.6c8.3-7.2,20.1-9.8,31.2-5.7c1.6,0.6,3.2,1.3,4.6,2.1
			C716.2,890.6,722.3,906.5,717,921z"/>
		<path class="st19" d="M717,921c-1.9,5.2-5,9.5-8.9,12.8c-30.6,4.3-18.9-8.6-7.9-17.9c12.1-10.3,2.3-9.6-11.3-16.7
			c-10-5.2,5.4-12.5,14.4-16C716.2,890.6,722.3,906.5,717,921z"/>
		<path class="st19" d="M680.5,940.4c-1.1-0.3-2.2-0.6-3.3-1c-16.1-5.9-24.3-23.8-18.4-39.9c1.9-5.1,4.9-9.3,8.7-12.6
			c6.3-0.1,12.6,0.2,9.7,2c-5.3,3.3-19.9,16.2-9.4,18.4c10.4,2.2,26,3.7,10.6,12.7c-15.4,9-0.3,14.1,4.4,15.1
			C685.6,935.7,682.2,938.5,680.5,940.4z"/>
	</g>
</g>
<g>
	<polygon class="st20" points="1305.8,507.1 1351.2,500.4 1305.6,493.6 1371,471.8 1302.3,473.7 1342.7,451.9 1297.5,461.2 
		1351.5,418.4 1287.7,443.6 1318.1,409.3 1278.8,433.5 1314.9,374.8 1263.6,420.3 1280.5,377.7 1251.8,413.8 1265.7,346.3 
		1233,406.7 1234.3,360.9 1219.7,404.6 1209.6,336.4 1199.5,404.4 1185.1,360.8 1186.3,406.9 1153.5,346.3 1167.3,413.6 
		1138.9,377.6 1155.8,420.5 1104.2,374.8 1140.2,433.3 1101.2,409.2 1131.8,443.7 1067.7,418.4 1121.5,461 1076.6,451.8 
		1117.1,473.8 1048.2,471.8 1113.4,493.5 1068,500.2 1113.6,507 1048.2,528.8 1116.9,526.9 1076.5,548.7 1121.7,539.4 1067.7,582.2 
		1131.5,557 1101.1,591.3 1140.4,567.1 1104.2,625.9 1155.6,580.3 1138.7,622.9 1167.4,586.8 1153.5,654.3 1186.2,593.9 
		1184.9,639.7 1199.5,596 1209.6,664.2 1219.6,596.2 1234.1,639.8 1232.9,593.7 1265.7,654.3 1251.9,587 1280.3,623 1263.4,580.1 
		1314.9,625.9 1279,567.3 1318,591.4 1287.4,556.9 1351.5,582.2 1297.7,539.6 1342.6,548.8 1302.1,526.9 1371,528.8 	"/>
	<polygon class="st21" points="1260,503.8 1283.7,500.3 1259.8,496.8 1294.1,485.4 1258.1,486.4 1279.3,475 1255.6,479.8 
		1283.9,457.4 1250.5,470.6 1266.4,452.7 1245.8,465.3 1264.7,434.6 1237.8,458.5 1246.7,436.1 1231.7,455 1238.9,419.7 
		1221.8,451.3 1222.5,427.3 1214.9,450.2 1209.6,414.5 1204.3,450.1 1196.8,427.3 1197.4,451.4 1180.3,419.7 1187.5,454.9 
		1172.6,436.1 1181.4,458.5 1154.5,434.6 1173.3,465.2 1152.8,452.6 1168.9,470.7 1135.3,457.4 1163.5,479.8 1140,474.9 
		1161.2,486.4 1125.1,485.4 1159.2,496.8 1135.5,500.3 1159.4,503.8 1125.1,515.2 1161.1,514.2 1139.9,525.6 1163.6,520.8 
		1135.3,543.2 1168.7,530 1152.8,547.9 1173.4,535.3 1154.5,566 1181.3,542.1 1172.5,564.5 1187.5,545.6 1180.3,580.9 1197.4,549.3 
		1196.7,573.3 1204.3,550.4 1209.6,586.1 1214.9,550.5 1222.4,573.3 1221.8,549.2 1238.9,580.9 1231.7,545.7 1246.6,564.5 
		1237.8,542.1 1264.7,566 1245.9,535.4 1266.3,548 1250.3,529.9 1283.9,543.2 1255.7,520.9 1279.2,525.7 1258,514.2 1294.1,515.2 	
		"/>
	<circle class="st20" cx="1209.6" cy="500.3" r="23.8"/>
</g>
<g>
	<circle class="st17" cx="610.5" cy="119.7" r="84.2"/>
	<g>
		<circle class="st17" cx="606.7" cy="103.1" r="13.9"/>
		<path class="st22" d="M594.6,108c0-7.7,6.2-13.9,13.9-13.9c5.1,0,9.5,2.7,12,6.8c-1.1-6.6-6.8-11.7-13.8-11.7
			c-7.7,0-13.9,6.2-13.9,13.9c0,2.6,0.7,5,2,7.1C594.6,109.5,594.6,108.8,594.6,108z"/>
	</g>
	<g>
		<circle class="st17" cx="635.2" cy="66" r="10.1"/>
		<path class="st22" d="M626.3,69.6c0-5.6,4.5-10.1,10.1-10.1c3.7,0,6.9,2,8.7,4.9c-0.8-4.8-5-8.5-10-8.5c-5.6,0-10.1,4.5-10.1,10.1
			c0,1.9,0.5,3.7,1.4,5.2C626.4,70.7,626.3,70.1,626.3,69.6z"/>
	</g>
	<g>
		<circle class="st17" cx="601.1" cy="156.5" r="14.6"/>
		<path class="st22" d="M588.4,161.6c0-8.1,6.5-14.6,14.6-14.6c5.3,0,10,2.9,12.5,7.1c-1.1-7-7.1-12.3-14.4-12.3
			c-8.1,0-14.6,6.5-14.6,14.6c0,2.7,0.8,5.3,2.1,7.5C588.5,163.2,588.4,162.4,588.4,161.6z"/>
	</g>
	<g>
		<circle class="st17" cx="551.9" cy="132.4" r="10.2"/>
		<path class="st22" d="M543,136c0-5.6,4.6-10.2,10.2-10.2c3.7,0,7,2,8.8,5c-0.8-4.9-5-8.6-10.1-8.6c-5.6,0-10.2,4.6-10.2,10.2
			c0,1.9,0.5,3.7,1.4,5.2C543.1,137.1,543,136.6,543,136z"/>
	</g>
	<g>
		<circle class="st17" cx="569.5" cy="68" r="8.6"/>
		<path class="st22" d="M562,71c0-4.7,3.8-8.6,8.6-8.6c3.1,0,5.9,1.7,7.4,4.2c-0.7-4.1-4.2-7.2-8.5-7.2c-4.7,0-8.6,3.8-8.6,8.6
			c0,1.6,0.4,3.1,1.2,4.4C562.1,72,562,71.5,562,71z"/>
	</g>
	<path class="st22" d="M648.6,44.6c9.8,13.7,15.5,30.5,15.5,48.7c0,46.5-37.7,84.2-84.2,84.2c-13.7,0-26.6-3.3-38.1-9.1
		c15.3,21.5,40.3,35.5,68.7,35.5c46.5,0,84.2-37.7,84.2-84.2C694.7,86.9,676,58.5,648.6,44.6z"/>
	<g>
		<circle class="st22" cx="658.2" cy="133.9" r="12.7"/>
		<path class="st17" d="M647.1,138.4c0-7,5.7-12.7,12.7-12.7c4.6,0,8.7,2.5,10.9,6.2c-1-6-6.2-10.6-12.5-10.6
			c-7,0-12.7,5.7-12.7,12.7c0,2.4,0.7,4.6,1.8,6.5C647.2,139.7,647.1,139.1,647.1,138.4z"/>
	</g>
</g>
<g>
	<polygon class="st23" points="467.1,0 340,27.3 422.6,57.2 341.1,63.3 457.1,122.8 320.8,115.9 392.8,166.1 312.5,151 409.2,238.4 
		279.3,196.5 335.9,263.7 262.2,228.3 333,337.8 218.3,263.6 255.6,343.2 193.6,289.9 233.7,414 142.1,312.7 157.5,399.2 
		111.4,331.7 118,461.9 55.8,340.4 48.3,427.9 21.2,350.8 0,449.6 0,980 1400,980 1400,0 	"/>
	<path class="st24" d="M48.3,427.9l7.5-87.5L118,461.9l-6.6-130.2l46.1,67.5l-15.4-86.5L233.7,414l-40-124.1l62,53.3l-37.3-79.5
		L333,337.8l-70.8-109.5l73.7,35.4l-56.6-67.2l130,41.9L312.5,151l80.3,15.1l-72.1-50.2l136.4,6.9L341.1,63.3l81.5-6.2L340,27.3
		L467.1,0H290.9C290.1,161.4,160.8,292.3,0,295.6v154l21.2-98.8L48.3,427.9z"/>
	<path class="st17" d="M0,208.9v86.7C160.8,292.3,290.1,161.4,290.9,0h-86.7C203.4,113.5,112.9,205.6,0,208.9z"/>
	<path class="st25" d="M204.2,0H0v208.9C112.9,205.6,203.4,113.5,204.2,0z"/>
</g>
<polygon class="st26" points="1348,270.2 1354,284 1369,285.4 1357.7,295.4 1361,310.1 1348,302.5 1335,310.1 1338.3,295.4 
	1327,285.4 1342,284 "/>
<polygon class="st27" points="750.3,29.9 754.5,39.5 765,40.5 757.1,47.5 759.4,57.8 750.3,52.5 741.2,57.8 743.5,47.5 735.6,40.5 
	746.1,39.5 "/>
<polygon class="st27" points="479.2,217 485.9,232.4 502.7,234 490.1,245.2 493.7,261.6 479.2,253.1 464.7,261.6 468.3,245.2 
	455.7,234 472.5,232.4 "/>
<polygon class="st27" points="494.3,799 499.4,810.7 512,811.9 502.5,820.3 505.2,832.7 494.3,826.3 483.3,832.7 486.1,820.3 
	476.6,811.9 489.2,810.7 "/>
<polygon class="st27" points="63.8,600.6 68.8,612.2 81.5,613.4 72,621.9 74.7,634.3 63.8,627.8 52.8,634.3 55.6,621.9 46,613.4 
	58.7,612.2 "/>
<polygon class="st27" points="1305.2,35.7 1310.3,47.4 1322.9,48.6 1313.4,57 1316.2,69.4 1305.2,63 1294.3,69.4 1297,57 
	1287.5,48.6 1300.1,47.4 "/>
<polygon class="st27" points="1334.8,622.3 1340.3,634.9 1354,636.2 1343.7,645.4 1346.7,658.8 1334.8,651.8 1322.9,658.8 
	1325.9,645.4 1315.6,636.2 1329.3,634.9 "/>
<polygon class="st26" points="966.2,833.7 970.4,843.5 981.1,844.5 973.1,851.6 975.4,862 966.2,856.6 957,862 959.3,851.6 
	951.3,844.5 961.9,843.5 "/>
<polygon class="st27" points="1021.6,333.8 1025.6,343.1 1035.7,344.1 1028.1,350.8 1030.3,360.6 1021.6,355.5 1012.9,360.6 
	1015.1,350.8 1007.5,344.1 1017.5,343.1 "/>
<g>
	<path class="st12" d="M1284.9,793.9c0,10.2-1.2,20.1-3.5,29.7c-1.6,6.7-3.8,13.2-6.4,19.5c-1.4,3.4-3,6.7-4.7,9.9
		c-1.9,3.5-3.9,6.9-6,10.2c-5.2,7.9-11.3,15.2-18.1,21.7c-22.6,21.7-53.4,35-87.2,35c-15.3,0-29.9-2.7-43.5-7.7
		c-9.6-3.5-18.7-8.2-27-13.8c-6.5-4.4-12.6-9.4-18.2-15c-6.9-6.8-13-14.4-18.1-22.7c-0.1-0.1-0.2-0.3-0.2-0.4
		c-5.9-9.5-10.6-19.9-13.8-30.9c-0.6-2.1-1.2-4.2-1.7-6.4c-2.2-9.4-3.4-19.1-3.4-29.1c0-6.8,0.5-13.5,1.6-20.1
		c3-18.9,10.2-36.3,20.6-51.4c3.8-5.4,7.9-10.6,12.5-15.4c23-24.1,55.4-39.1,91.3-39.1c20.4,0,39.8,4.9,56.8,13.5
		c20.9,10.6,38.5,26.8,50.6,46.7c1,1.6,2,3.3,2.9,5c7.8,14.2,13,30,14.8,46.9c0.5,4.3,0.7,8.7,0.7,13.1
		C1284.9,793.4,1284.9,793.6,1284.9,793.9z"/>
	<path class="st28" d="M1183,670.2c30.3,23,49.9,59.4,49.9,100.4c0,69.6-56.4,126-126,126c-8.2,0-16.3-0.8-24.1-2.3
		c21.1,16.1,47.5,25.6,76.1,25.6c69.6,0,126-56.4,126-126C1284.9,732.5,1241,681.4,1183,670.2z"/>
	<path class="st29" d="M1089.5,805.6c32.3-4.2,93.4-18.3,35.1,14c-27.5,15.2-53.1,29.8-72.5,41c-0.1-0.1-0.2-0.3-0.2-0.4
		c-5.9-9.5-10.6-19.9-13.8-30.9c-0.6-2.1-1.2-4.2-1.7-6.4c-2.2-9.4-3.4-19.1-3.4-29.1c0-6.8,0.5-13.5,1.6-20.1
		c3-18.9,10.2-36.3,20.6-51.4c39.2-8,89.9-16.8,67.3-3.2c-35.1,21.1-69.6,45-19,35.1c50.6-9.8,106.8-21.1,42.9,11.2
		C1082.4,797.9,1057.1,809.8,1089.5,805.6z"/>
	<path class="st29" d="M1284.9,793.9c0,10.2-1.2,20.1-3.5,29.7c-1.6,6.7-3.8,13.2-6.4,19.5c-1.4,3.4-3,6.7-4.7,9.9
		c-5.2,1.8-10.6,3.5-16.4,5.2c-97.7,28.2-41.3-9.6-4.7-25c36.5-15.4,7.2-18.7-54.3-11.3c-61.5,7.4,28.4-30.3,60.4-47.9
		c32.1-17.6-20.6-4.8-65.9-0.1c-34,3.6,40.7-25.8,79.9-40.6c7.8,14.2,13,30,14.8,46.9c0.5,4.3,0.7,8.7,0.7,13.1
		C1284.9,793.4,1284.9,793.6,1284.9,793.9z"/>
	<path class="st30" d="M1177.3,711.1c0,0-64.3,21.1-30,17.9s48.5-10,39.5-1.1c-9,9,45.3-5.3,28.5-6.3
		C1198.3,720.6,1230,699.9,1177.3,711.1z"/>
	<path class="st30" d="M1104.8,696.1c44.3-1.4,49-7.7,41.6-0.4c-7.4,7.4,18.6,5.3,32,2.8c13.3-2.5,18.6-11.4,2.5-8.8
		c-16,2.6-14.4-1.1-7.8-10.5C1178.9,670.8,1060.6,697.5,1104.8,696.1z"/>
	<path class="st30" d="M1078.2,866.5c2.1-1,107-45.8,81.7-30s-53.7,35.8-33.7,30c20-5.8,22.1,4.7-1.1,13.2s-35.8,10-23.2-0.5
		c12.6-10.5-36.7,5.4-24.6-3S1059.9,875.3,1078.2,866.5z"/>
</g>
<polygon class="st26" points="449,708 453.3,716.7 462,721 453.3,725.3 449,734 444.7,725.3 436,721 444.7,716.7 "/>
<polygon class="st26" points="919.3,237.3 923.6,246.1 932.3,250.3 923.6,254.6 919.3,263.3 915.1,254.6 906.3,250.3 915.1,246.1 
	"/>
<polygon class="st26" points="478.7,52.3 483,61 491.7,65.3 483,69.5 478.7,78.3 474.5,69.5 465.7,65.3 474.5,61 "/>
<polygon class="st26" points="66.7,481.7 71,490.5 79.7,494.7 71,499 66.7,507.7 62.5,499 53.7,494.7 62.5,490.5 "/>
<polygon class="st26" points="1039.1,624.6 1043.3,633.3 1052.1,637.6 1043.3,641.8 1039.1,650.6 1034.8,641.8 1026.1,637.6 
	1034.8,633.3 "/>
<polygon class="st27" points="67.7,883.3 72,892 80.7,896.3 72,900.5 67.7,909.3 63.5,900.5 54.7,896.3 63.5,892 "/>
<circle class="st26" cx="589" cy="913" r="12"/>
<circle class="st26" cx="415" cy="321" r="12"/>
<circle class="st26" cx="489" cy="169" r="8"/>
<circle class="st27" cx="1075" cy="51" r="6"/>
<circle class="st26" cx="1358" cy="110" r="5"/>
<circle class="st26" cx="730" cy="184" r="9"/>
<circle class="st26" cx="1101" cy="333" r="7"/>
<circle class="st26" cx="1351" cy="756" r="8"/>
<circle class="st27" cx="1343.6" cy="895.1" r="10"/>
<circle class="st27" cx="967.1" cy="745.1" r="9"/>
<circle class="st26" cx="379.1" cy="911.6" r="7"/>
<circle class="st27" cx="390" cy="584" r="9"/>
<circle class="st26" cx="45" cy="783" r="12"/>
<circle class="st27" cx="210" cy="946" r="8.4"/>
<circle class="st26" cx="1252" cy="30" r="3"/>
<circle class="st26" cx="1029" cy="505" r="8"/>
<circle class="st26" cx="901" cy="919" r="6"/>
<circle class="st26" cx="1223" cy="953.7" r="7.1"/>
<circle class="st26" cx="299" cy="350" r="10"/>
</svg>
