<?xml version="1.0" encoding="utf-8"?>
<!-- Generator: Adobe Illustrator 22.1.0, SVG Export Plug-In . SVG Version: 6.00 Build 0)  -->
<svg version="1.1"
	 id="svg3991" xmlns:cc="http://creativecommons.org/ns#" xmlns:dc="http://purl.org/dc/elements/1.1/" xmlns:rdf="http://www.w3.org/1999/02/22-rdf-syntax-ns#" xmlns:svg="http://www.w3.org/2000/svg"
	 xmlns="http://www.w3.org/2000/svg" xmlns:xlink="http://www.w3.org/1999/xlink" x="0px" y="0px" viewBox="0 0 320 320"
	 style="enable-background:new 0 0 320 320;" xml:space="preserve">
<style type="text/css">
	.st0{clip-path:url(#SVGID_2_);}
	.st1{fill:#FFCE00;}
	.st2{fill:#FFDD15;}
</style>
<g id="g3999" transform="matrix(1.25,0,0,-1.25,0,320)">
	<g id="g4001">
		<g>
			<defs>
				<rect id="SVGID_1_" x="-32" y="-32" width="320" height="320"/>
			</defs>
			<clipPath id="SVGID_2_">
				<use xlink:href="#SVGID_1_"  style="overflow:visible;"/>
			</clipPath>
			<g id="g4003" class="st0">
				<g id="g4013" transform="translate(138.5421,227.1638)">
					<path id="path4015" class="st1" d="M0,0l28.3-56.6l63.3-9.8c12.6-2,15.4-10.7,6.2-19.6l-45.6-44.1l10.7-63.7
						c2.1-12.6-5.3-17.9-16.6-11.9l-56.7,30.2L-67-205.8c-11.3-6-18.7-0.7-16.6,11.9l10.7,63.7L-118.5-86
						c-9.2,8.9-6.4,17.7,6.2,19.6l63.3,9.8L-20.7,0C-15,11.4-5.7,11.4,0,0"/>
				</g>
				<g id="g4017" transform="translate(190.7448,97.0613)">
					<path id="path4019" class="st2" d="M0,0l10.7-63.7"/>
				</g>
				<g id="g4021" transform="translate(181.4393,100.1232)">
					
						<image style="overflow:visible;" width="274" height="213" xlink:href="C2DE881011277DB5.png"  transform="matrix(0.8 0 0 -0.8 -150.2393 69.4768)">
					</image>
				</g>
				<g id="g4025" transform="translate(60.4723,114.1207)">
					
						<image style="overflow:visible;" width="274" height="153" xlink:href="C2DE881011277DB7.png"  transform="matrix(0.8 0 0 -0.8 -29.2723 55.4793)">
					</image>
				</g>
				<g id="g4029" transform="translate(60.4716,114.1204)">
					
						<image style="overflow:visible;" width="314" height="143" xlink:href="C2DE881011277DB2.png"  transform="matrix(0.8 0 0 -0.8 -50.8716 85.0796)">
					</image>
				</g>
				<g id="g4033" transform="translate(70.2625,28.7111)">
					
						<image style="overflow:visible;" width="89" height="88" xlink:href="C2DE881011277DB3.png"  transform="matrix(0.8 0 0 -0.8 -42.2625 35.2889)">
					</image>
				</g>
				<g id="g4037" transform="translate(126.3963,228.8204)">
					<g id="path4039">
						
							<image style="overflow:visible;" width="203" height="169" xlink:href="C2DE881011277DBD.png"  transform="matrix(0.8 0 0 -0.8 -132.7963 29.5796)">
						</image>
					</g>
				</g>
			</g>
		</g>
	</g>
</g>
</svg>
